<svg width="24" height="24" viewBox="0 0 24 24" fill="none" xmlns="http://www.w3.org/2000/svg">
<g id="github 1">
<path id="Vector" d="M15.5 22.7001H15.4L15.3 22.6V19.5C15.3 18.8 15.2 18.2001 14.9 17.7001C17.2 17.3001 19.7 16.1 19.7 11.6C19.7 10.4 19.3 9.30005 18.6 8.40005C18.8 7.80005 18.9 6.70005 18.4 5.30005L18.1 5.00005C18.1 5.00005 17.9 4.90005 17.7 4.90005C17.1 4.90005 16.2 5.10005 14.7 6.10005C13.9 6.00005 13 5.80005 12 5.80005C11 5.80005 10.1 5.90005 9.2 6.10005C7.8 5.20005 6.8 5.00005 6.2 5.00005C6 5.00005 5.9 5.10005 5.8 5.10005C5.7 5.10005 5.5 5.30005 5.5 5.40005C5 6.80005 5.1 7.90005 5.3 8.50005C4.6 9.40005 4.2 10.5 4.2 11.7C4.2 16.1 6.8 17.3 9 17.8C8.9 18 8.8 18.3 8.7 18.6C8.5 18.7 8.2 18.8 7.8 18.8C7.4 18.8 7 18.7 6.7 18.4L6.6 18.3C6.5 18.2 6.5 18.1 6.4 18.1L6.3 18L6.2 17.9C6.2 17.8 5.4 16.6 4 16.5C3.5 16.5 3.1 16.7 3 17C2.8 17.5 3.4 17.9 3.7 18.1C3.7 18.1 4.3 18.4 4.7 19.5C4.9 20.2 5.8 21.5 7.9 21.5H8.6V22.9L8.5 23C4 21.2 1 17 1 12.3C1 6.20005 5.9 1.30005 12 1.30005C18.1 1.30005 23 6.20005 23 12.3C23 17 20 21.2001 15.5 22.7001Z" fill="black"/>
</g>
</svg>
