<svg width="24" height="24" viewBox="0 0 24 24" fill="none" xmlns="http://www.w3.org/2000/svg">
<g id="iconoir:internet">
<g id="Group">
<path id="Vector" d="M22 12C22 6.477 17.523 2 12 2C6.477 2 2 6.477 2 12C2 17.523 6.477 22 12 22" stroke="black" stroke-width="1.5" stroke-linecap="round" stroke-linejoin="round"/>
<path id="Vector_2" d="M13 2.05005C13 2.05005 16 6.00005 16 12M11 21.9501C11 21.9501 8 18 8 12C8 6.00005 11 2.05005 11 2.05005M2.63 15.5H12M2.63 8.50005H21.37" stroke="black" stroke-width="1.5" stroke-linecap="round" stroke-linejoin="round"/>
<path id="Vector_3" d="M21.879 17.9169C22.373 18.2209 22.342 18.9599 21.834 19.0179L19.267 19.3089L18.116 21.6209C17.888 22.0799 17.183 21.8549 17.066 21.2869L15.811 15.1709C15.712 14.6909 16.144 14.3889 16.561 14.6459L21.879 17.9169Z" stroke="black" stroke-width="1.5"/>
</g>
</g>
</svg>
